<svg width="634" height="226" viewBox="0 0 634 226" fill="none" xmlns="http://www.w3.org/2000/svg">
<path d="M39.552 146.408C26.752 146.408 18.048 142.867 13.44 135.784C8.91733 128.701 6.656 117.053 6.656 100.84C6.656 84.6267 8.96 73.1067 13.568 66.28C18.176 59.368 26.8373 55.912 39.552 55.912C47.1467 55.912 55.5093 56.9787 64.64 59.112L64.128 70.632C56.448 69.2667 48.768 68.584 41.088 68.584C33.408 68.584 28.2027 70.888 25.472 75.496C22.7413 80.0187 21.376 88.5947 21.376 101.224C21.376 113.768 22.6987 122.344 25.344 126.952C27.9893 131.475 33.152 133.736 40.832 133.736C48.512 133.736 56.2773 133.096 64.128 131.816L64.512 143.592C55.7227 145.469 47.4027 146.408 39.552 146.408ZM80.404 87.912C84.8413 82.3653 92.18 79.592 102.42 79.592C112.66 79.592 119.956 82.3653 124.308 87.912C128.745 93.4587 130.964 101.779 130.964 112.872C130.964 123.965 128.831 132.328 124.564 137.96C120.297 143.592 112.916 146.408 102.42 146.408C91.924 146.408 84.5427 143.592 80.276 137.96C76.0093 132.328 73.876 123.965 73.876 112.872C73.876 101.779 76.052 93.4587 80.404 87.912ZM90.9 129.512C92.8627 132.925 96.7027 134.632 102.42 134.632C108.137 134.632 111.977 132.925 113.94 129.512C115.903 126.099 116.884 120.509 116.884 112.744C116.884 104.979 115.817 99.4747 113.684 96.232C111.636 92.9893 107.881 91.368 102.42 91.368C96.9587 91.368 93.1613 92.9893 91.028 96.232C88.98 99.4747 87.956 104.979 87.956 112.744C87.956 120.509 88.9373 126.099 90.9 129.512ZM158.775 145H144.823V54.376H158.775V84.328C165.09 81.1707 170.935 79.592 176.311 79.592C184.844 79.592 190.647 82.024 193.719 86.888C196.876 91.6667 198.455 99.6027 198.455 110.696V145H184.503V111.08C184.503 104.168 183.778 99.2613 182.327 96.36C180.876 93.4587 177.804 92.008 173.111 92.008C169.015 92.008 164.919 92.6907 160.823 94.056L158.775 94.824V145ZM260.266 133.48L263.85 133.096L264.106 143.464C254.378 145.427 245.759 146.408 238.25 146.408C228.778 146.408 221.951 143.805 217.77 138.6C213.674 133.395 211.626 125.075 211.626 113.64C211.626 90.9413 220.885 79.592 239.402 79.592C257.322 79.592 266.282 89.3627 266.282 108.904L265.386 118.888H225.706C225.791 124.179 226.943 128.061 229.162 130.536C231.381 133.011 235.519 134.248 241.578 134.248C247.637 134.248 253.866 133.992 260.266 133.48ZM252.586 108.136C252.586 101.821 251.562 97.4267 249.514 94.952C247.551 92.392 244.181 91.112 239.402 91.112C234.623 91.112 231.125 92.4347 228.906 95.08C226.773 97.7253 225.663 102.077 225.578 108.136H252.586ZM324.114 94.184C314.045 92.8187 306.749 92.136 302.226 92.136C297.703 92.136 294.546 92.6907 292.754 93.8C291.047 94.824 290.194 96.488 290.194 98.792C290.194 101.096 291.133 102.717 293.01 103.656C294.973 104.595 299.495 105.704 306.578 106.984C313.746 108.179 318.823 110.099 321.81 112.744C324.797 115.389 326.29 120.083 326.29 126.824C326.29 133.565 324.114 138.515 319.762 141.672C315.495 144.829 309.223 146.408 300.946 146.408C295.741 146.408 289.17 145.683 281.234 144.232L277.266 143.592L277.778 131.944C288.018 133.309 295.399 133.992 299.922 133.992C304.445 133.992 307.645 133.437 309.522 132.328C311.485 131.219 312.466 129.384 312.466 126.824C312.466 124.264 311.527 122.515 309.65 121.576C307.858 120.552 303.463 119.485 296.466 118.376C289.554 117.181 284.477 115.347 281.234 112.872C277.991 110.397 276.37 105.875 276.37 99.304C276.37 92.7333 278.589 87.8267 283.026 84.584C287.549 81.3413 293.309 79.72 300.306 79.72C305.767 79.72 312.466 80.4027 320.402 81.768L324.37 82.536L324.114 94.184ZM339.698 145V81H353.65V145H339.698ZM339.698 70.12V55.4H353.65V70.12H339.698ZM374.029 87.912C378.466 82.3653 385.805 79.592 396.045 79.592C406.285 79.592 413.581 82.3653 417.933 87.912C422.37 93.4587 424.589 101.779 424.589 112.872C424.589 123.965 422.456 132.328 418.189 137.96C413.922 143.592 406.541 146.408 396.045 146.408C385.549 146.408 378.168 143.592 373.901 137.96C369.634 132.328 367.501 123.965 367.501 112.872C367.501 101.779 369.677 93.4587 374.029 87.912ZM384.525 129.512C386.488 132.925 390.328 134.632 396.045 134.632C401.762 134.632 405.602 132.925 407.565 129.512C409.528 126.099 410.509 120.509 410.509 112.744C410.509 104.979 409.442 99.4747 407.309 96.232C405.261 92.9893 401.506 91.368 396.045 91.368C390.584 91.368 386.786 92.9893 384.653 96.232C382.605 99.4747 381.581 104.979 381.581 112.744C381.581 120.509 382.562 126.099 384.525 129.512ZM452.4 145H438.448V81H452.272V84.968C458.501 81.384 464.389 79.592 469.936 79.592C478.469 79.592 484.272 82.024 487.344 86.888C490.501 91.6667 492.08 99.6027 492.08 110.696V145H478.256V111.08C478.256 104.168 477.488 99.2613 475.952 96.36C474.501 93.4587 471.472 92.008 466.864 92.008C462.512 92.008 458.331 92.8613 454.32 94.568L452.4 95.336V145Z" fill="white"/>
<path fill-rule="evenodd" clip-rule="evenodd" d="M538 55C528.611 55 521 62.6112 521 72V141C521 150.389 528.611 158 538 158H617C626.389 158 634 150.389 634 141V72C634 62.6112 626.389 55 617 55H538ZM544.368 89V139H557.768V89H544.368ZM544.368 69V82.6H557.768V69H544.368ZM612.649 139V69H599.249V89.2L597.349 88.8C593.549 88.1333 590.583 87.8 588.449 87.8C581.516 87.8 576.316 89.9 572.849 94.1C569.449 98.2333 567.749 104.867 567.749 114C567.749 123.067 569.183 129.7 572.049 133.9C574.916 138.1 579.983 140.2 587.249 140.2C590.649 140.2 594.683 139.1 599.349 136.9V139H612.649ZM599.249 126.7L597.849 127C594.783 127.8 591.849 128.2 589.049 128.2C586.316 128.2 584.349 127.1 583.149 124.9C581.949 122.7 581.349 119 581.349 113.8C581.349 104.2 584.049 99.4 589.449 99.4C592.316 99.4 595.583 99.7333 599.249 100.4V126.7Z" fill="white"/>
</svg>
